<?xml version="1.0" encoding="utf-8"?>
<svg width="24" height="24" viewBox="0 0 24 24" fill="none" stroke="black" stroke-width="2" stroke-linecap="round" stroke-linejoin="round" class="feather feather-instagram" xmlns="http://www.w3.org/2000/svg">
  <text style="white-space: pre; fill: rgb(51, 51, 51); font-family: Arial, sans-serif; font-size: 32px;" x="717.155" y="15.661"> </text>
  <path d="M 22.283 7.779 L 12.679 1.418 C 12.353 1.218 12.002 1.217 11.672 1.418 L 2.068 7.779 C 1.821 7.941 1.668 8.232 1.668 8.523 L 1.668 14.882 C 1.668 15.174 1.821 15.466 2.068 15.629 L 11.672 21.988 C 11.999 22.189 12.35 22.191 12.679 21.988 L 22.283 15.629 C 22.53 15.466 22.683 15.174 22.683 14.882 L 22.683 8.523 C 22.683 8.232 22.53 7.941 22.283 7.779 Z M 13.079 3.842 L 20.151 8.523 L 16.996 10.62 L 13.079 8.023 L 13.079 3.842 Z M 11.273 3.842 L 11.273 8.023 L 7.356 10.62 L 4.202 8.523 L 11.273 3.842 Z M 3.474 10.201 L 5.737 11.703 L 3.474 13.205 L 3.474 10.201 Z M 11.273 19.566 L 4.202 14.882 L 7.356 12.786 L 11.273 15.385 L 11.273 19.566 Z M 12.176 13.823 L 8.985 11.703 L 12.176 9.583 L 15.365 11.703 L 12.176 13.823 Z M 13.079 19.566 L 13.079 15.385 L 16.996 12.786 L 20.151 14.882 L 13.079 19.566 Z M 20.877 13.205 L 18.614 11.703 L 20.877 10.201 L 20.877 13.205 Z" style="stroke-width: 6px; vector-effect: non-scaling-stroke; stroke-opacity: 0.9; paint-order: stroke; stroke: rgb(255, 255, 255); fill: rgb(255, 255, 255);"/>
</svg>