<?xml version="1.0" encoding="utf-8"?>
<svg width="24" height="24" viewBox="0 0 24 24" fill="none" stroke="black" stroke-width="2" stroke-linecap="round" stroke-linejoin="round" class="feather feather-instagram" xmlns="http://www.w3.org/2000/svg">
  <text style="white-space: pre; fill: rgb(51, 51, 51); font-family: Arial, sans-serif; font-size: 32px;" x="717.155" y="15.661"> </text>
  <path d="M 21.773 8.373 L 12.518 2.55 C 12.204 2.366 11.865 2.366 11.547 2.55 L 2.292 8.373 C 2.054 8.521 1.906 8.788 1.906 9.055 L 1.906 14.876 C 1.906 15.144 2.054 15.41 2.292 15.56 L 11.547 21.381 C 11.862 21.565 12.201 21.567 12.518 21.381 L 21.773 15.56 C 22.011 15.41 22.159 15.144 22.159 14.876 L 22.159 9.055 C 22.159 8.788 22.011 8.521 21.773 8.373 Z M 12.903 4.769 L 19.719 9.055 L 16.678 10.974 L 12.903 8.596 L 12.903 4.769 Z M 11.163 4.769 L 11.163 8.596 L 7.388 10.974 L 4.348 9.055 L 11.163 4.769 Z M 3.647 10.591 L 5.828 11.965 L 3.647 13.341 L 3.647 10.591 Z M 11.163 19.164 L 4.348 14.876 L 7.388 12.957 L 11.163 15.336 L 11.163 19.164 Z M 12.033 13.906 L 8.958 11.965 L 12.033 10.025 L 15.106 11.965 L 12.033 13.906 Z M 12.903 19.164 L 12.903 15.336 L 16.678 12.957 L 19.719 14.876 L 12.903 19.164 Z M 20.418 13.341 L 18.237 11.965 L 20.418 10.591 L 20.418 13.341 Z" style="vector-effect: non-scaling-stroke; paint-order: fill markers; fill-rule: nonzero; stroke-opacity: 0; stroke-width: 0px; stroke: none; fill: rgb(255, 255, 255);"/>
</svg>