<?xml version="1.0" encoding="utf-8"?>
<svg viewBox="0 0 512 512" xmlns="http://www.w3.org/2000/svg">
  <path d="M 485.143 168.272 L 266.557 23.668 C 259.096 19.113 251.133 19.071 243.604 23.668 L 25.017 168.272 C 19.412 171.979 15.943 178.601 15.943 185.221 L 15.943 329.824 C 15.943 336.445 19.412 343.066 25.018 346.774 L 243.605 491.398 C 251.066 495.954 259.028 495.996 266.558 491.398 L 485.144 346.774 C 490.749 343.067 494.219 336.445 494.219 329.824 L 494.219 185.221 C 494.219 178.601 490.749 171.979 485.143 168.272 Z M 275.632 78.754 L 436.57 185.221 L 364.775 232.893 L 275.632 173.833 L 275.632 78.754 Z M 234.53 78.754 L 234.53 173.833 L 145.387 232.893 L 73.592 185.221 L 234.53 78.754 Z M 57.045 223.359 L 108.556 257.523 L 57.045 291.687 L 57.045 223.359 Z M 234.53 436.292 L 73.592 329.825 L 145.387 282.153 L 234.53 341.213 L 234.53 436.292 Z M 255.081 305.724 L 182.485 257.523 L 255.081 209.322 L 327.677 257.523 L 255.081 305.724 Z M 275.632 436.292 L 275.632 341.213 L 364.775 282.153 L 436.57 329.825 L 275.632 436.292 Z M 453.117 291.687 L 401.606 257.523 L 453.117 223.359 L 453.117 291.687 Z" style="fill: rgb(255, 255, 255);"/>
</svg>