<svg xmlns="http://www.w3.org/2000/svg" xmlns:xlink="http://www.w3.org/1999/xlink" version="1.1" width="1000" height="1000" viewBox="0 0 1000 1000" xml:space="preserve">
<desc>Created with Fabric.js 3.5.0</desc>
<defs>
</defs>
<rect x="0" y="0" width="100%" height="100%" fill="#ffffff"/>
<g transform="matrix(3.5511 0 0 3.5511 499.9953 499.9953)" id="342460">
<g style="" vector-effect="non-scaling-stroke">
		<g transform="matrix(2.81 0 0 2.81 -0.1434 -0.1448)">
<path style="stroke: none; stroke-width: 1; stroke-dasharray: none; stroke-linecap: butt; stroke-dashoffset: 0; stroke-linejoin: miter; stroke-miterlimit: 10; is-custom-font: none; font-file-url: none; fill: rgb(255,255,255); fill-rule: nonzero; opacity: 1;" transform=" translate(-45, -44.9995)" d="M 75.546 78.738 H 14.455 C 6.484 78.738 0 72.254 0 64.283 V 25.716 c 0 -7.97 6.485 -14.455 14.455 -14.455 h 61.091 c 7.97 0 14.454 6.485 14.454 14.455 v 38.567 C 90 72.254 83.516 78.738 75.546 78.738 z M 14.455 15.488 c -5.64 0 -10.228 4.588 -10.228 10.228 v 38.567 c 0 5.64 4.588 10.229 10.228 10.229 h 61.091 c 5.64 0 10.228 -4.589 10.228 -10.229 V 25.716 c 0 -5.64 -4.588 -10.228 -10.228 -10.228 H 14.455 z" stroke-linecap="round"/>
</g>
		<g transform="matrix(2.81 0 0 2.81 -45.6823 -13.7303)">
<path style="stroke: none; stroke-width: 1; stroke-dasharray: none; stroke-linecap: butt; stroke-dashoffset: 0; stroke-linejoin: miter; stroke-miterlimit: 10; is-custom-font: none; font-file-url: none; fill: rgb(255,255,255); fill-rule: nonzero; opacity: 1;" transform=" translate(-28.794, -40.1648)" d="M 11.044 25.917 C 21.848 36.445 32.652 46.972 43.456 57.5 c 2.014 1.962 5.105 -1.122 3.088 -3.088 C 35.74 43.885 24.936 33.357 14.132 22.83 C 12.118 20.867 9.027 23.952 11.044 25.917 L 11.044 25.917 z" stroke-linecap="round"/>
</g>
		<g transform="matrix(2.81 0 0 2.81 45.3954 -13.7298)">
<path style="stroke: none; stroke-width: 1; stroke-dasharray: none; stroke-linecap: butt; stroke-dashoffset: 0; stroke-linejoin: miter; stroke-miterlimit: 10; is-custom-font: none; font-file-url: none; fill: rgb(255,255,255); fill-rule: nonzero; opacity: 1;" transform=" translate(-61.206, -40.165)" d="M 46.544 57.5 c 10.804 -10.527 21.608 -21.055 32.412 -31.582 c 2.016 -1.965 -1.073 -5.051 -3.088 -3.088 C 65.064 33.357 54.26 43.885 43.456 54.412 C 41.44 56.377 44.529 59.463 46.544 57.5 L 46.544 57.5 z" stroke-linecap="round"/>
</g>
		<g transform="matrix(2.81 0 0 2.81 60.2969 31.5237)">
<path style="stroke: none; stroke-width: 1; stroke-dasharray: none; stroke-linecap: butt; stroke-dashoffset: 0; stroke-linejoin: miter; stroke-miterlimit: 10; is-custom-font: none; font-file-url: none; fill: rgb(255,255,255); fill-rule: nonzero; opacity: 1;" transform=" translate(-66.509, -56.2694)" d="M 78.837 64.952 c -7.189 -6.818 -14.379 -13.635 -21.568 -20.453 c -2.039 -1.933 -5.132 1.149 -3.088 3.088 c 7.189 6.818 14.379 13.635 21.568 20.453 C 77.788 69.973 80.881 66.89 78.837 64.952 L 78.837 64.952 z" stroke-linecap="round"/>
</g>
		<g transform="matrix(2.81 0 0 2.81 -60.0357 31.5216)">
<path style="stroke: none; stroke-width: 1; stroke-dasharray: none; stroke-linecap: butt; stroke-dashoffset: 0; stroke-linejoin: miter; stroke-miterlimit: 10; is-custom-font: none; font-file-url: none; fill: rgb(255,255,255); fill-rule: nonzero; opacity: 1;" transform=" translate(-23.686, -56.2687)" d="M 14.446 68.039 c 7.189 -6.818 14.379 -13.635 21.568 -20.453 c 2.043 -1.938 -1.048 -5.022 -3.088 -3.088 c -7.189 6.818 -14.379 13.635 -21.568 20.453 C 9.315 66.889 12.406 69.974 14.446 68.039 L 14.446 68.039 z" stroke-linecap="round"/>
</g>
</g>
</g>
</svg>